<svg xmlns="http://www.w3.org/2000/svg" xmlns:xlink="http://www.w3.org/1999/xlink" width="2000" zoomAndPan="magnify" viewBox="0 0 1500 1499.999933" height="2000" preserveAspectRatio="xMidYMid meet" version="1.0"><defs><g/></defs><g fill="#000000" fill-opacity="1"><g transform="translate(66.867215, 1211.499617)"><g><path d="M 502.5 13.75 C 438.332031 13.75 378.539062 2.082031 323.125 -21.25 C 267.707031 -44.582031 219.164062 -76.875 177.5 -118.125 C 135.832031 -159.375 103.539062 -207.707031 80.625 -263.125 C 57.707031 -318.539062 46.25 -377.914062 46.25 -441.25 C 46.25 -504.582031 57.707031 -563.539062 80.625 -618.125 C 103.539062 -672.707031 135.625 -720.625 176.875 -761.875 C 218.125 -803.125 266.25 -835.207031 321.25 -858.125 C 376.25 -881.039062 435.832031 -892.5 500 -892.5 C 564.164062 -892.5 623.75 -881.039062 678.75 -858.125 C 733.75 -835.207031 782.082031 -803.125 823.75 -761.875 C 865.414062 -720.625 897.707031 -672.5 920.625 -617.5 C 943.539062 -562.5 955 -503.332031 955 -440 C 955 -376.664062 943.539062 -317.5 920.625 -262.5 C 897.707031 -207.5 865.625 -159.375 824.375 -118.125 C 783.125 -76.875 735 -44.582031 680 -21.25 C 625 2.082031 565.832031 13.75 502.5 13.75 Z M 898.75 65 L 496.25 -337.5 L 598.75 -441.25 L 1002.5 -37.5 Z M 500 -145 C 555.832031 -145 604.789062 -157.5 646.875 -182.5 C 688.957031 -207.5 721.875 -242.082031 745.625 -286.25 C 769.375 -330.414062 781.25 -382.082031 781.25 -441.25 C 781.25 -484.582031 774.375 -524.164062 760.625 -560 C 746.875 -595.832031 727.5 -626.875 702.5 -653.125 C 677.5 -679.375 647.914062 -699.582031 613.75 -713.75 C 579.582031 -727.914062 541.664062 -735 500 -735 C 445 -735 396.457031 -722.707031 354.375 -698.125 C 312.289062 -673.539062 279.375 -639.164062 255.625 -595 C 231.875 -550.832031 220 -499.582031 220 -441.25 C 220 -397.082031 226.875 -356.664062 240.625 -320 C 254.375 -283.332031 273.539062 -252.082031 298.125 -226.25 C 322.707031 -200.414062 352.289062 -180.414062 386.875 -166.25 C 421.457031 -152.082031 459.164062 -145 500 -145 Z M 500 -145 "/></g></g></g><g fill="#4f39f6" fill-opacity="1"><g transform="translate(1064.378851, 1211.499617)"><g><path d="M 185 12.5 C 155 12.5 130.414062 2.5 111.25 -17.5 C 92.082031 -37.5 82.5 -62.082031 82.5 -91.25 C 82.5 -120.414062 92.082031 -145 111.25 -165 C 130.414062 -185 155 -195 185 -195 C 214.164062 -195 238.332031 -185 257.5 -165 C 276.664062 -145 286.25 -120.414062 286.25 -91.25 C 286.25 -62.082031 276.664062 -37.5 257.5 -17.5 C 238.332031 2.5 214.164062 12.5 185 12.5 Z M 185 12.5 "/></g></g></g></svg>